<?xml version="1.0" encoding="UTF-8"?>
<svg id="Capa_2" data-name="Capa 2" xmlns="http://www.w3.org/2000/svg" viewBox="0 0 229.06 42.68">
  <defs>
    <style>
      .cls-1 {
        stroke: #000;
      }

      .cls-1, .cls-2 {
        fill: #fff;
        stroke-miterlimit: 10;
        stroke-width: 4px;
      }

      .cls-2 {
        stroke: #fff;
      }

      .cls-3 {
        fill: #23376f;
      }

      .cls-3, .cls-4 {
        stroke-width: 0px;
      }

      .cls-4 {
        fill: #ffdb00;
      }
    </style>
  </defs>
  <g id="Capa_1-2" data-name="Capa 1">
    <g>
      <g>
        <path class="cls-2" d="m10.18,30.86c.38.88.93,1.58,1.66,2.1.72.52,1.59.89,2.59,1.11,1,.22,2.09.34,3.26.34.83,0,1.66-.1,2.49-.31s1.58-.52,2.25-.93c.67-.41,1.23-.95,1.66-1.6s.65-1.45.65-2.38-.28-1.63-.83-2.2-1.27-1.06-2.15-1.48c-.88-.41-1.88-.78-3-1.09s-2.25-.64-3.39-.98c-1.17-.34-2.31-.76-3.42-1.24-1.11-.48-2.1-1.1-2.98-1.86-.88-.76-1.59-1.69-2.12-2.8-.54-1.1-.8-2.45-.8-4.04,0-2.07.43-3.83,1.29-5.28.86-1.45,1.98-2.63,3.36-3.55,1.38-.91,2.94-1.59,4.69-2.02,1.74-.43,3.51-.65,5.31-.65,1.9,0,3.68.22,5.36.65,1.67.43,3.14,1.13,4.4,2.1s2.26,2.2,3,3.7c.74,1.5,1.11,3.32,1.11,5.46h-7.71c.03-1.04-.11-1.91-.44-2.61-.33-.71-.79-1.29-1.4-1.73-.6-.45-1.32-.77-2.15-.96-.83-.19-1.71-.28-2.64-.28-.76,0-1.53.08-2.3.23-.78.16-1.48.41-2.1.78-.62.36-1.12.84-1.5,1.42-.38.59-.57,1.31-.57,2.17s.34,1.65,1.01,2.25c.67.6,1.48,1.1,2.43,1.5.95.4,1.92.71,2.92.93s1.81.41,2.43.54c1.45.38,2.78.82,3.99,1.32,1.21.5,2.25,1.15,3.13,1.94.88.79,1.56,1.76,2.05,2.9.48,1.14.72,2.54.72,4.19,0,2.21-.46,4.09-1.37,5.64-.92,1.55-2.09,2.81-3.52,3.78-1.43.97-3.05,1.67-4.84,2.1-1.79.43-3.57.65-5.33.65-5.18,0-9.03-1.05-11.57-3.16-2.54-2.11-3.81-5.42-3.81-9.94h7.71c-.07,1.31.09,2.41.47,3.29Z"/>
        <path class="cls-2" d="m51.08,2.88l-7.82,36.97h-8.13L42.9,2.88h8.18Z"/>
        <path class="cls-2" d="m59.06,30.86c.38.88.93,1.58,1.66,2.1.72.52,1.59.89,2.59,1.11,1,.22,2.09.34,3.26.34.83,0,1.66-.1,2.49-.31s1.58-.52,2.25-.93c.67-.41,1.23-.95,1.66-1.6s.65-1.45.65-2.38-.28-1.63-.83-2.2-1.27-1.06-2.15-1.48c-.88-.41-1.88-.78-3-1.09s-2.25-.64-3.39-.98c-1.17-.34-2.31-.76-3.42-1.24-1.11-.48-2.1-1.1-2.98-1.86-.88-.76-1.59-1.69-2.12-2.8-.54-1.1-.8-2.45-.8-4.04,0-2.07.43-3.83,1.29-5.28.86-1.45,1.98-2.63,3.36-3.55,1.38-.91,2.94-1.59,4.69-2.02,1.74-.43,3.51-.65,5.31-.65,1.9,0,3.68.22,5.36.65,1.67.43,3.14,1.13,4.4,2.1s2.26,2.2,3,3.7c.74,1.5,1.11,3.32,1.11,5.46h-7.71c.03-1.04-.11-1.91-.44-2.61-.33-.71-.79-1.29-1.4-1.73-.6-.45-1.32-.77-2.15-.96-.83-.19-1.71-.28-2.64-.28-.76,0-1.53.08-2.3.23-.78.16-1.48.41-2.1.78-.62.36-1.12.84-1.5,1.42-.38.59-.57,1.31-.57,2.17s.34,1.65,1.01,2.25c.67.6,1.48,1.1,2.43,1.5.95.4,1.92.71,2.92.93s1.81.41,2.43.54c1.45.38,2.78.82,3.99,1.32,1.21.5,2.25,1.15,3.13,1.94.88.79,1.56,1.76,2.05,2.9.48,1.14.72,2.54.72,4.19,0,2.21-.46,4.09-1.37,5.64-.92,1.55-2.09,2.81-3.52,3.78-1.43.97-3.05,1.67-4.84,2.1-1.79.43-3.57.65-5.33.65-5.18,0-9.03-1.05-11.57-3.16-2.54-2.11-3.81-5.42-3.81-9.94h7.71c-.07,1.31.09,2.41.47,3.29Z"/>
        <path class="cls-1" d="m118.08,2.88l-1.5,6.83h-18.12l-1.81,8.54h15.84l-1.35,6.32h-15.79l-3.26,15.27h-8.08l7.77-36.97h26.3Z"/>
        <path class="cls-1" d="m140.08,2.88c1.66-.03,3.17.11,4.53.44,1.36.33,2.53.88,3.49,1.66.97.78,1.71,1.79,2.23,3.03.52,1.24.78,2.76.78,4.56,0,1.24-.21,2.43-.62,3.57-.41,1.14-1,2.15-1.76,3.03-.76.88-1.66,1.61-2.69,2.2-1.04.59-2.17.97-3.42,1.14v.1c1.52.48,2.54,1.32,3.05,2.51.52,1.19.78,2.53.78,4.01,0,.83-.04,1.82-.13,2.98-.09,1.16-.13,2.3-.13,3.44,0,.83.03,1.61.1,2.36.07.74.21,1.39.41,1.94h-7.92c-.1-.45-.19-.87-.26-1.27s-.1-.8-.1-1.22c0-1.24.07-2.49.21-3.75.14-1.26.21-2.51.21-3.75,0-.9-.13-1.63-.39-2.2s-.62-1.03-1.09-1.37c-.47-.34-1.03-.58-1.68-.7-.66-.12-1.38-.18-2.17-.18h-7.66l-3.05,14.45h-8.08l7.71-36.97h17.66Zm-5.49,16.72c1.1,0,2.16-.11,3.16-.34s1.89-.57,2.67-1.04c.78-.47,1.4-1.07,1.86-1.81.47-.74.7-1.63.7-2.67s-.16-1.8-.49-2.41c-.33-.6-.77-1.06-1.32-1.37-.55-.31-1.19-.52-1.92-.62s-1.48-.16-2.28-.16h-7.71l-2.17,10.41h7.51Z"/>
        <path class="cls-1" d="m178.45,2.88l6.16,36.97h-8.08l-1.19-8.23h-13.82l-4.66,8.23h-8.54L170.11,2.88h8.33Zm-3.83,22.68l-1.81-14.7h-.1l-7.97,14.7h9.89Z"/>
        <path class="cls-1" d="m203.71,2.88l10.04,26.3h.1l5.28-26.3h7.46l-7.82,36.97h-8.13l-10.15-25.94h-.1l-5.28,25.94h-7.56l7.77-36.97h8.39Z"/>
      </g>
      <g>
        <path class="cls-3" d="m10.18,30.86c.38.88.93,1.58,1.66,2.1.72.52,1.59.89,2.59,1.11,1,.22,2.09.34,3.26.34.83,0,1.66-.1,2.49-.31s1.58-.52,2.25-.93c.67-.41,1.23-.95,1.66-1.6s.65-1.45.65-2.38-.28-1.63-.83-2.2-1.27-1.06-2.15-1.48c-.88-.41-1.88-.78-3-1.09s-2.25-.64-3.39-.98c-1.17-.34-2.31-.76-3.42-1.24-1.11-.48-2.1-1.1-2.98-1.86-.88-.76-1.59-1.69-2.12-2.8-.54-1.1-.8-2.45-.8-4.04,0-2.07.43-3.83,1.29-5.28.86-1.45,1.98-2.63,3.36-3.55,1.38-.91,2.94-1.59,4.69-2.02,1.74-.43,3.51-.65,5.31-.65,1.9,0,3.68.22,5.36.65,1.67.43,3.14,1.13,4.4,2.1s2.26,2.2,3,3.7c.74,1.5,1.11,3.32,1.11,5.46h-7.71c.03-1.04-.11-1.91-.44-2.61-.33-.71-.79-1.29-1.4-1.73-.6-.45-1.32-.77-2.15-.96-.83-.19-1.71-.28-2.64-.28-.76,0-1.53.08-2.3.23-.78.16-1.48.41-2.1.78-.62.36-1.12.84-1.5,1.42-.38.59-.57,1.31-.57,2.17s.34,1.65,1.01,2.25c.67.6,1.48,1.1,2.43,1.5.95.4,1.92.71,2.92.93s1.81.41,2.43.54c1.45.38,2.78.82,3.99,1.32,1.21.5,2.25,1.15,3.13,1.94.88.79,1.56,1.76,2.05,2.9.48,1.14.72,2.54.72,4.19,0,2.21-.46,4.09-1.37,5.64-.92,1.55-2.09,2.81-3.52,3.78-1.43.97-3.05,1.67-4.84,2.1-1.79.43-3.57.65-5.33.65-5.18,0-9.03-1.05-11.57-3.16-2.54-2.11-3.81-5.42-3.81-9.94h7.71c-.07,1.31.09,2.41.47,3.29Z"/>
        <path class="cls-3" d="m51.08,2.88l-7.82,36.97h-8.13L42.9,2.88h8.18Z"/>
        <path class="cls-3" d="m59.05,30.86c.38.88.93,1.58,1.66,2.1.72.52,1.59.89,2.59,1.11,1,.22,2.09.34,3.26.34.83,0,1.66-.1,2.49-.31s1.58-.52,2.25-.93c.67-.41,1.23-.95,1.66-1.6s.65-1.45.65-2.38-.28-1.63-.83-2.2-1.27-1.06-2.15-1.48c-.88-.41-1.88-.78-3-1.09s-2.25-.64-3.39-.98c-1.17-.34-2.31-.76-3.42-1.24-1.11-.48-2.1-1.1-2.98-1.86-.88-.76-1.59-1.69-2.12-2.8-.54-1.1-.8-2.45-.8-4.04,0-2.07.43-3.83,1.29-5.28.86-1.45,1.98-2.63,3.36-3.55,1.38-.91,2.94-1.59,4.69-2.02,1.74-.43,3.51-.65,5.31-.65,1.9,0,3.68.22,5.36.65,1.67.43,3.14,1.13,4.4,2.1s2.26,2.2,3,3.7c.74,1.5,1.11,3.32,1.11,5.46h-7.71c.03-1.04-.11-1.91-.44-2.61-.33-.71-.79-1.29-1.4-1.73-.6-.45-1.32-.77-2.15-.96-.83-.19-1.71-.28-2.64-.28-.76,0-1.53.08-2.3.23-.78.16-1.48.41-2.1.78-.62.36-1.12.84-1.5,1.42-.38.59-.57,1.31-.57,2.17s.34,1.65,1.01,2.25c.67.6,1.48,1.1,2.43,1.5.95.4,1.92.71,2.92.93s1.81.41,2.43.54c1.45.38,2.78.82,3.99,1.32,1.21.5,2.25,1.15,3.13,1.94.88.79,1.56,1.76,2.05,2.9.48,1.14.72,2.54.72,4.19,0,2.21-.46,4.09-1.37,5.64-.92,1.55-2.09,2.81-3.52,3.78-1.43.97-3.05,1.67-4.84,2.1-1.79.43-3.57.65-5.33.65-5.18,0-9.03-1.05-11.57-3.16-2.54-2.11-3.81-5.42-3.81-9.94h7.71c-.07,1.31.09,2.41.47,3.29Z"/>
        <g>
          <path class="cls-4" d="m118.08,2.88l-1.5,6.83h-18.12l-1.81,8.54h15.84l-1.35,6.32h-15.79l-3.26,15.27h-8.08l7.77-36.97h26.3Z"/>
          <path class="cls-4" d="m140.08,2.88c1.66-.03,3.17.11,4.53.44,1.36.33,2.53.88,3.49,1.66.97.78,1.71,1.79,2.23,3.03.52,1.24.78,2.76.78,4.56,0,1.24-.21,2.43-.62,3.57-.41,1.14-1,2.15-1.76,3.03-.76.88-1.66,1.61-2.69,2.2-1.04.59-2.17.97-3.42,1.14v.1c1.52.48,2.54,1.32,3.05,2.51.52,1.19.78,2.53.78,4.01,0,.83-.04,1.82-.13,2.98-.09,1.16-.13,2.3-.13,3.44,0,.83.03,1.61.1,2.36.07.74.21,1.39.41,1.94h-7.92c-.1-.45-.19-.87-.26-1.27s-.1-.8-.1-1.22c0-1.24.07-2.49.21-3.75.14-1.26.21-2.51.21-3.75,0-.9-.13-1.63-.39-2.2s-.62-1.03-1.09-1.37c-.47-.34-1.03-.58-1.68-.7-.66-.12-1.38-.18-2.17-.18h-7.66l-3.05,14.45h-8.08l7.71-36.97h17.66Zm-5.49,16.72c1.1,0,2.16-.11,3.16-.34s1.89-.57,2.67-1.04c.78-.47,1.4-1.07,1.86-1.81.47-.74.7-1.63.7-2.67s-.16-1.8-.49-2.41c-.33-.6-.77-1.06-1.32-1.37-.55-.31-1.19-.52-1.92-.62s-1.48-.16-2.28-.16h-7.71l-2.17,10.41h7.51Z"/>
          <path class="cls-4" d="m178.45,2.88l6.16,36.97h-8.08l-1.19-8.23h-13.82l-4.66,8.23h-8.54L170.11,2.88h8.34Zm-3.83,22.68l-1.81-14.7h-.1l-7.97,14.7h9.89Z"/>
          <path class="cls-4" d="m203.71,2.88l10.04,26.3h.1l5.28-26.3h7.46l-7.82,36.97h-8.13l-10.15-25.94h-.1l-5.28,25.94h-7.56l7.77-36.97h8.39Z"/>
        </g>
      </g>
    </g>
  </g>
</svg>